# xmcd
#
# Track frame offsets:
#	150
#	12721
#	31300
#	44933
#	57868
#	70889
#	86963
#	103883
#	118706
#	136995
#	159701
#	175930
#	188955
#	203267
#	222198
#	244395
#
# Disc length: 3484 seconds
#
# Revision: 0
# Processed by: cddbd v1.5.2PL0 Copyright (c) Steve Scherf et al.
# Submitted via: dBpowerAMP V4.0
#
DISCID=f40d9a10
DTITLE=John Mayall And The Bluesbreakers - Cross Country Blues
DYEAR=1900
DGENRE=Blues
TTITLE0=Rock 'n' Roll Kitchen
TTITLE1=Rock In The Pocket
TTITLE2=An Eye For An Eye
TTITLE3=Rise Again
TTITLE4=Keep On Rollin
TTITLE5=The Same Old  Blues
TTITLE6=Black Caribean Doll
TTITLE7=Along Long Way 1980
TTITLE8=Along Long Way 1981
TTITLE9=High Rollin Man
TTITLE10=Lonely Feelings
TTITLE11=Ridin' On 110 Fwy.
TTITLE12=My Babe
TTITLE13=Mudy Waters Blues
TTITLE14=Maggie's Boy
TTITLE15=Italiano Style
EXTD=
EXTT0=
EXTT1=
EXTT2=
EXTT3=
EXTT4=
EXTT5=
EXTT6=
EXTT7=
EXTT8=
EXTT9=
EXTT10=
EXTT11=
EXTT12=
EXTT13=
EXTT14=
EXTT15=
PLAYORDER=
